<?xml version="1.0" standalone="no"?>
<!DOCTYPE svg PUBLIC "-//W3C//DTD SVG 20010904//EN"
 "http://www.w3.org/TR/2001/REC-SVG-20010904/DTD/svg10.dtd">
<svg version="1.0" xmlns="http://www.w3.org/2000/svg"
 width="512.000000pt" height="512.000000pt" viewBox="0 0 512.000000 512.000000"
 preserveAspectRatio="xMidYMid meet">
<metadata>
Created by potrace 1.11, written by Peter Selinger 2001-2013
</metadata>
<g transform="translate(0.000000,512.000000) scale(0.100000,-0.100000)"
fill="#000000" stroke="none">
<path d="M0 2560 l0 -2560 2560 0 2560 0 0 2560 0 2560 -2560 0 -2560 0 0
-2560z m1940 627 c339 -632 621 -1149 626 -1150 5 0 281 518 614 1151 l605
1151 313 1 312 0 0 -1780 0 -1780 -330 0 -330 0 0 1110 c0 611 -3 1110 -7
1110 -5 0 -212 -385 -462 -855 l-454 -855 -274 2 -274 3 -452 852 c-249 469
-455 853 -459 853 -5 0 -8 -499 -8 -1110 l0 -1110 -330 0 -330 0 0 1780 0
1780 312 -2 312 -3 616 -1148z"/>
</g>
</svg>
